# File created by Blade
# Date/Time:  Tue Sep 28 14:35:47 2010
#---------------------------------------------------------
:version 1.10
:name HOM
:units
  mass 1.0
  length 1.000000
  angle deg
:documentation
     Acclaim Skeleton File
:root
   axis xyz
   order TX TY TZ RX RY RZ
   position 0.000000 0.000000 0.000000
   orientation 0 0 0
:bonedata
   begin
      id 1
      name LeftUpLeg_dum
      direction 1.000000 0.000000 0.000000
      length 3.677894
      axis 0.0 0.0 0.0 xyz
   end
   begin
      id 2
      name RightUpLeg_dum
      direction -1.000000 0.000000 0.000000
      length 3.677894
      axis 0.0 0.0 0.0 xyz
   end
   begin
      id 3
      name Spine_dum
      direction 0.000000 1.000000 0.000000
      length 0.039370
      axis 0.0 0.0 0.0 xyz
   end
   begin
      id 4
      name LeftUpLeg
      direction 0.000000 -1.000000 0.000000
      length 18.389491
      axis 0.0 0.0 0.0 xyz
      dof rx ry rz
   end
   begin
      id 5
      name LeftLeg
      direction 0.000000 -1.000000 0.000000
      length 16.918313
      axis 0.0 0.0 0.0 xyz
      dof rx ry rz
   end
   begin
      id 6
      name LeftFoot
      direction 0.000000 -0.258819 0.965926
      length 6.436326
      axis 15.0 0.0 0.0 xyz
      dof rx ry rz
   end
   begin
      id 7
      name LeftToeBase
      direction 0.000000 0.000000 1.000000
      length 2.952750
      axis 0.0 0.0 0.0 xyz
      dof rx ry rz
   end
   begin
      id 8
      name RightUpLeg
      direction 0.000000 -1.000000 0.000000
      length 18.389491
      axis 0.0 0.0 0.0 xyz
      dof rx ry rz
   end
   begin
      id 9
      name RightLeg
      direction 0.000000 -1.000000 0.000000
      length 16.918313
      axis 0.0 0.0 0.0 xyz
      dof rx ry rz
   end
   begin
      id 10
      name RightFoot
      direction 0.000000 -0.258819 0.965926
      length 6.436326
      axis 15.0 0.0 0.0 xyz
      dof rx ry rz
   end
   begin
      id 11
      name RightToeBase
      direction 0.000000 0.000000 1.000000
      length 2.952750
      axis 0.0 0.0 0.0 xyz
      dof rx ry rz
   end
   begin
      id 12
      name Spine
      direction 0.000000 1.000000 0.000000
      length 9.194745
      axis 0.0 0.0 0.0 xyz
      dof rx ry rz
   end
   begin
      id 13
      name Spine1
      direction 0.000000 1.000000 0.000000
      length 0.000000
      axis 0.0 0.0 0.0 xyz
      dof rx ry rz
   end
   begin
      id 14
      name Spine1_dum1
      direction 0.000000 1.000000 0.000000
      length 9.194745
      axis 0.0 0.0 0.0 xyz
   end
   begin
      id 15
      name Spine1_dum2
      direction 0.000000 1.000000 0.000000
      length 9.194745
      axis 0.0 0.0 0.0 xyz
   end
   begin
      id 16
      name Spine1_dum3
      direction 0.000000 1.000000 0.000000
      length 9.194745
      axis 0.0 0.0 0.0 xyz
   end
   begin
      id 17
      name Neck
      direction 0.000000 1.000000 0.000000
      length 4.229598
      axis 0.0 0.0 0.0 xyz
      dof rx ry rz
   end
   begin
      id 18
      name Head
      direction 0.000000 1.000000 0.000000
      length 4.527550
      axis 0.0 0.0 0.0 xyz
      dof rx ry rz
   end
   begin
      id 19
      name LeftShoulder
      direction 1.000000 -0.000004 0.000000
      length 5.516839
      axis 0.0 0.0 -90.0 xyz
      dof rx ry rz
   end
   begin
      id 20
      name LeftArm
      direction 1.000000 -0.000004 0.000000
      length 11.033679
      axis 0.0 0.0 -90.0 xyz
      dof rx ry rz
   end
   begin
      id 21
      name LeftForeArm
      direction 1.000000 -0.000004 0.000000
      length 10.114232
      axis 0.0 0.0 -90.0 xyz
      dof rx ry rz
   end
   begin
      id 22
      name LeftHand
      direction 0.000000 0.000000 0.000000
      length 0.000000
      axis 0.0 0.0 -90.0 xyz
      dof rx ry rz
   end
   begin
      id 23
      name LeftHand_dum1
      direction 0.000000 0.000000 0.000000
      length 0.000000
      axis 0.0 0.0 -90.0 xyz
   end
   begin
      id 24
      name LeftHand_dum2
      direction 1.000000 -0.000004 0.000000
      length 3.937000
      axis 0.0 0.0 -90.0 xyz
   end
   begin
      id 25
      name LeftHandThumb
      direction 0.000000 0.000000 1.000000
      length 3.937000
      axis 0.0 0.0 -90.0 xyz
      dof rx ry rz
   end
   begin
      id 26
      name RightShoulder
      direction -1.000000 -0.000004 0.000000
      length 5.516839
      axis 0.0 0.0 90.0 xyz
      dof rx ry rz
   end
   begin
      id 27
      name RightArm
      direction -1.000000 -0.000004 0.000000
      length 11.033679
      axis 0.0 0.0 90.0 xyz
      dof rx ry rz
   end
   begin
      id 28
      name RightForeArm
      direction -1.000000 -0.000004 0.000000
      length 10.114232
      axis 0.0 0.0 90.0 xyz
      dof rx ry rz
   end
   begin
      id 29
      name RightHand
      direction 0.000000 0.000000 0.000000
      length 0.000000
      axis 0.0 0.0 90.0 xyz
      dof rx ry rz
   end
   begin
      id 30
      name RightHand_dum1
      direction 0.000000 0.000000 0.000000
      length 0.000000
      axis 0.0 0.0 90.0 xyz
   end
   begin
      id 31
      name RightHand_dum2
      direction -1.000000 -0.000004 0.000000
      length 5.393690
      axis 0.0 0.0 90.0 xyz
   end
   begin
      id 32
      name RightHandThumb
      direction 0.000000 0.000000 1.000000
      length 3.937000
      axis 0.0 0.0 90.0 xyz
      dof rx ry rz
   end
:hierarchy
   begin
      root LeftUpLeg_dum RightUpLeg_dum Spine_dum
      LeftUpLeg_dum LeftUpLeg
      RightUpLeg_dum RightUpLeg
      Spine_dum Spine
      LeftUpLeg LeftLeg
      LeftLeg LeftFoot
      LeftFoot LeftToeBase
      RightUpLeg RightLeg
      RightLeg RightFoot
      RightFoot RightToeBase
      Spine Spine1
      Spine1 Spine1_dum1 Spine1_dum2 Spine1_dum3
      Spine1_dum1 Neck
      Spine1_dum2 LeftShoulder
      Spine1_dum3 RightShoulder
      Neck Head
      LeftShoulder LeftArm
      LeftArm LeftForeArm
      LeftForeArm LeftHand
      LeftHand LeftHand_dum1 LeftHand_dum2
      LeftHand_dum1 LeftHandThumb
      RightShoulder RightArm
      RightArm RightForeArm
      RightForeArm RightHand
      RightHand RightHand_dum1 RightHand_dum2
      RightHand_dum1 RightHandThumb
   end

# File created by Blade
# Date/Time:  Tue Sep 28 14:35:42 2010
# Frame Rate: 200.000 fps
#------------------------------------------------------
:FULLY-SPECIFIED
:DEGREES
522
root  0.016840 36.093947 -17.468969 8.796464 -4.261989 -0.078767
LeftUpLeg  -30.557304 -3.603372 3.056875
LeftLeg  8.532793 -0.000000 0.000000
LeftFoot  5.113755 25.634340 2.146436
LeftToeBase  -11.188838 0.000000 -0.000000
RightUpLeg  2.046324 -20.172222 -3.233742
RightLeg  25.635474 -0.000000 0.000000
RightFoot  -6.857921 1.702846 -17.108365
RightToeBase  -23.328709 0.000000 -0.000000
Spine  -14.936812 -0.028443 -1.719523
Spine1  17.042914 1.464035 2.282659
Neck  7.072954 2.490034 -6.703244
Head  -11.782756 2.276910 3.053473
LeftShoulder  -7.313590 -12.081263 -26.431831
LeftArm  1.870419 32.994282 -35.861216
LeftForeArm  47.930928 -0.000000 0.000000
LeftHand  9.229239 -6.676636 3.070481
LeftHandThumb  0.000000 -0.000000 0.000000
RightShoulder  3.709809 5.761355 24.543179
RightArm  -0.600601 -51.435685 38.786661
RightForeArm  35.165470 -0.000000 0.000000
RightHand  7.113807 9.277648 -0.742292
RightHandThumb  0.000000 -0.000000 0.000000
523
root  0.054549 36.070624 -17.216604 8.790854 -4.261079 -0.126653
LeftUpLeg  -30.646262 -2.435781 2.309050
LeftLeg  9.180552 -0.000000 0.000000
LeftFoot  6.234865 24.265203 3.646089
LeftToeBase  -11.241610 0.000000 -0.000000
RightUpLeg  2.173643 -19.931542 -3.370277
RightLeg  26.030507 -0.000000 0.000000
RightFoot  -6.375973 1.717641 -16.979627
RightToeBase  -24.100787 0.000000 -0.000000
Spine  -14.933846 -0.036042 -1.778628
Spine1  16.982799 1.483942 2.354669
Neck  7.076206 2.453221 -6.684686
Head  -11.774063 2.298165 3.067492
LeftShoulder  -7.322959 -12.098601 -26.397269
LeftArm  1.839652 33.125056 -35.928200
LeftForeArm  47.912915 -0.000000 0.000000
LeftHand  9.223762 -6.451730 3.123668
LeftHandThumb  0.000000 -0.000000 0.000000
RightShoulder  3.661947 5.664726 24.551351
RightArm  -0.672242 -51.422024 38.802263
RightForeArm  34.958523 -0.000000 0.000000
RightHand  7.007211 9.194643 -0.718719
RightHandThumb  0.000000 -0.000000 0.000000
524
root  0.092764 36.050906 -16.964665 8.787278 -4.257649 -0.166404
LeftUpLeg  -30.724419 -1.472463 1.683935
LeftLeg  9.702296 -0.000000 0.000000
LeftFoot  7.631006 23.062763 5.204472
LeftToeBase  -10.605146 0.000000 -0.000000
RightUpLeg  2.275951 -19.681022 -3.504283
RightLeg  26.434235 -0.000000 0.000000
RightFoot  -5.799824 1.732478 -16.884141
RightToeBase  -25.113155 0.000000 -0.000000
Spine  -14.923109 -0.061223 -1.848034
Spine1  16.918005 1.491072 2.420083
Neck  7.077150 2.439714 -6.666960
Head  -11.780412 2.330455 3.091251
LeftShoulder  -7.344427 -12.048664 -26.367389
LeftArm  1.823870 33.198817 -35.999169
LeftForeArm  47.867457 -0.000000 0.000000
LeftHand  9.236709 -6.272884 3.255931
LeftHandThumb  0.000000 -0.000000 0.000000
RightShoulder  3.614344 5.608185 24.585191
RightArm  -0.770418 -51.428150 38.834609
RightForeArm  34.728457 -0.000000 0.000000
RightHand  7.014460 9.241634 -0.696872
RightHandThumb  0.000000 -0.000000 0.000000
525
root  0.130260 36.033724 -16.713579 8.782345 -4.240541 -0.204742
LeftUpLeg  -30.794270 -0.857117 1.259392
LeftLeg  10.120219 -0.000000 0.000000
LeftFoot  9.216222 22.306363 6.563202
LeftToeBase  -9.880135 0.000000 -0.000000
RightUpLeg  2.336898 -19.410043 -3.625702
RightLeg  26.896107 -0.000000 0.000000
RightFoot  -5.161030 1.763263 -16.750306
RightToeBase  -26.143455 0.000000 -0.000000
Spine  -14.903943 -0.081244 -1.918497
Spine1  16.844345 1.503200 2.469613
Neck  7.045733 2.421634 -6.627880
Head  -11.735773 2.333910 3.130996
LeftShoulder  -7.359433 -12.009694 -26.348986
LeftArm  1.820853 33.236314 -36.045014
LeftForeArm  47.801068 -0.000000 0.000000
LeftHand  9.214744 -6.175879 3.232415
LeftHandThumb  0.000000 -0.000000 0.000000
RightShoulder  3.570434 5.492315 24.624519
RightArm  -0.801651 -51.343120 38.824277
RightForeArm  34.478179 -0.000000 0.000000
RightHand  7.022682 9.156887 -0.582999
RightHandThumb  0.000000 -0.000000 0.000000
526
root  0.169102 36.020061 -16.459654 8.779465 -4.216834 -0.233972
LeftUpLeg  -30.850356 -0.463019 0.934643
LeftLeg  10.526784 -0.000000 0.000000
LeftFoot  10.536100 21.663445 7.539640
LeftToeBase  -8.769536 0.000000 -0.000000
RightUpLeg  2.387330 -19.074570 -3.742087
RightLeg  27.357956 -0.000000 0.000000
RightFoot  -4.477213 1.763612 -16.592539
RightToeBase  -27.367829 0.000000 -0.000000
Spine  -14.885483 -0.106546 -1.989794
Spine1  16.770743 1.510343 2.511103
Neck  7.012986 2.394861 -6.575176
Head  -11.684223 2.343878 3.143981
LeftShoulder  -7.361220 -12.015643 -26.350743
LeftArm  1.793420 33.353317 -36.100822
LeftForeArm  47.660321 -0.000000 0.000000
LeftHand  9.288973 -5.995981 3.279186
LeftHandThumb  0.000000 -0.000000 0.000000
RightShoulder  3.522132 5.362002 24.672268
RightArm  -0.844203 -51.263146 38.814743
RightForeArm  34.248300 -0.000000 0.000000
RightHand  6.991891 9.080666 -0.606947
RightHandThumb  0.000000 -0.000000 0.000000
527
root  0.212646 36.012314 -16.199424 8.777892 -4.176260 -0.244146
LeftUpLeg  -30.883444 -0.071275 0.601254
LeftLeg  10.993968 -0.000000 0.000000
LeftFoot  11.469766 21.149060 8.320408
LeftToeBase  -7.425116 0.000000 -0.000000
RightUpLeg  2.458752 -18.800991 -3.886837
RightLeg  27.778346 -0.000000 0.000000
RightFoot  -3.758821 1.822086 -16.462470
RightToeBase  -28.162245 0.000000 -0.000000
Spine  -14.890268 -0.139308 -2.069299
Spine1  16.680635 1.514471 2.564336
Neck  7.004340 2.368992 -6.527121
Head  -11.578632 2.368676 3.125930
LeftShoulder  -7.371900 -11.982362 -26.358173
LeftArm  1.754055 33.498741 -36.172372
LeftForeArm  47.488670 -0.000000 0.000000
LeftHand  9.294576 -5.879223 3.472819
LeftHandThumb  0.000000 -0.000000 0.000000
RightShoulder  3.469334 5.286288 24.742492
RightArm  -0.947507 -51.246768 38.823421
RightForeArm  33.985778 -0.000000 0.000000
RightHand  6.943024 9.221690 -0.653109
RightHandThumb  0.000000 -0.000000 0.000000
528
root  0.251965 36.009322 -15.943441 8.769160 -4.122065 -0.250605
LeftUpLeg  -30.918086 0.095817 0.372856
LeftLeg  11.545790 -0.000000 0.000000
LeftFoot  12.326047 20.938620 9.080456
LeftToeBase  -7.357284 0.000000 -0.000000
RightUpLeg  2.476963 -18.445057 -3.998267
RightLeg  28.254317 -0.000000 0.000000
RightFoot  -2.883769 1.819670 -16.269725
RightToeBase  -29.608232 0.000000 -0.000000
Spine  -14.879468 -0.175824 -2.164859
Spine1  16.609817 1.519890 2.596023
Neck  6.992624 2.335092 -6.471954
Head  -11.498966 2.372689 3.161225
LeftShoulder  -7.367859 -11.966465 -26.382818
LeftArm  1.734522 33.593227 -36.213046
LeftForeArm  47.273531 -0.000000 0.000000
LeftHand  9.343465 -5.840227 3.456500
LeftHandThumb  0.000000 -0.000000 0.000000
RightShoulder  3.415349 5.164358 24.821901
RightArm  -0.977638 -51.110195 38.798527
RightForeArm  33.699713 -0.000000 0.000000
RightHand  6.938211 9.277911 -0.580052
RightHandThumb  0.000000 -0.000000 0.000000
529
root  0.293058 36.012554 -15.681811 8.754181 -4.041826 -0.223654
LeftUpLeg  -30.962674 0.192921 0.145935
LeftLeg  12.240947 -0.000000 0.000000
LeftFoot  12.653609 20.745671 9.560035
LeftToeBase  -7.206886 0.000000 -0.000000
RightUpLeg  2.524776 -18.157104 -4.140847
RightLeg  28.679554 -0.000000 0.000000
RightFoot  -2.003934 1.811869 -16.156216
RightToeBase  -30.528840 0.000000 -0.000000
Spine  -14.887749 -0.226749 -2.277592
Spine1  16.549533 1.518137 2.634218
Neck  7.009882 2.274632 -6.428811
Head  -11.429993 2.372771 3.160709
LeftShoulder  -7.352922 -11.962251 -26.417438
LeftArm  1.709088 33.752567 -36.245316
LeftForeArm  46.997549 -0.000000 0.000000
LeftHand  9.372448 -5.758309 3.377484
LeftHandThumb  0.000000 -0.000000 0.000000
RightShoulder  3.367064 5.104330 24.924806
RightArm  -1.085979 -51.084614 38.801397
RightForeArm  33.437162 -0.000000 0.000000
RightHand  6.850244 9.292521 -0.654099
RightHandThumb  0.000000 -0.000000 0.000000
530
root  0.333127 36.020333 -15.420111 8.728780 -3.935076 -0.180301
LeftUpLeg  -31.018267 0.141981 -0.031955
LeftLeg  13.034819 -0.000000 0.000000
LeftFoot  12.877308 20.669564 10.068000
LeftToeBase  -7.512924 0.000000 -0.000000
RightUpLeg  2.545891 -17.833205 -4.279418
RightLeg  29.167873 -0.000000 0.000000
RightFoot  -1.059498 1.814820 -16.004832
RightToeBase  -31.461657 0.000000 -0.000000
Spine  -14.899731 -0.288942 -2.410327
Spine1  16.511571 1.512460 2.664787
Neck  7.040188 2.210478 -6.356792
Head  -11.378007 2.400371 3.154715
LeftShoulder  -7.318142 -11.944621 -26.470258
LeftArm  1.708678 33.880190 -36.268814
LeftForeArm  46.651569 -0.000000 0.000000
LeftHand  9.433811 -5.929788 3.357142
LeftHandThumb  0.000000 -0.000000 0.000000
RightShoulder  3.322518 5.065590 25.047741
RightArm  -1.175938 -51.031564 38.789666
RightForeArm  33.122921 -0.000000 0.000000
RightHand  6.871591 9.595427 -0.587310
RightHandThumb  0.000000 -0.000000 0.000000
531
root  0.370028 36.033446 -15.159196 8.696021 -3.813469 -0.124327
LeftUpLeg  -31.075495 0.018575 -0.180792
LeftLeg  13.867987 -0.000000 0.000000
LeftFoot  12.938270 20.585695 10.351237
LeftToeBase  -7.884977 0.000000 -0.000000
RightUpLeg  2.526088 -17.519313 -4.394906
RightLeg  29.648336 -0.000000 0.000000
RightFoot  0.108299 1.789226 -15.935331
RightToeBase  -32.763932 0.000000 -0.000000
Spine  -14.903739 -0.356327 -2.556635
Spine1  16.485058 1.506341 2.683416
Neck  7.050679 2.122105 -6.277942
Head  -11.317684 2.392695 3.144747
LeftShoulder  -7.282347 -11.895680 -26.531546
LeftArm  1.721196 34.016904 -36.262351
LeftForeArm  46.327205 -0.000000 0.000000
LeftHand  9.417318 -5.660555 3.517727
LeftHandThumb  0.000000 -0.000000 0.000000
RightShoulder  3.269875 4.989224 25.167366
RightArm  -1.221950 -50.900376 38.771937
RightForeArm  32.812164 -0.000000 0.000000
RightHand  6.816653 9.427952 -0.524639
RightHandThumb  0.000000 -0.000000 0.000000
532
root  0.405726 36.050745 -14.898231 8.660656 -3.672137 -0.067255
LeftUpLeg  -31.136052 -0.055334 -0.347953
LeftLeg  14.717727 -0.000000 0.000000
LeftFoot  13.041574 20.430734 10.675934
LeftToeBase  -8.308519 0.000000 -0.000000
RightUpLeg  2.474514 -17.098258 -4.470128
RightLeg  30.190020 -0.000000 0.000000
RightFoot  1.335715 1.677322 -15.600549
RightToeBase  -33.998117 0.000000 -0.000000
Spine  -14.904183 -0.421866 -2.711586
Spine1  16.460891 1.504748 2.688004
Neck  7.070919 2.067086 -6.194520
Head  -11.257118 2.405496 3.193549
LeftShoulder  -7.234036 -11.871193 -26.585974
LeftArm  1.742866 34.125529 -36.265978
LeftForeArm  45.917710 -0.000000 0.000000
LeftHand  9.439137 -5.687665 3.443460
LeftHandThumb  0.000000 -0.000000 0.000000
RightShoulder  3.212800 4.861249 25.298978
RightArm  -1.216636 -50.723037 38.736443
RightForeArm  32.457105 -0.000000 0.000000
RightHand  6.805858 9.584431 -0.471091
RightHandThumb  0.000000 -0.000000 0.000000
